<?xml version="1.0" encoding="UTF-8"?>
<svg width="48" height="48" viewBox="0 0 48 48" fill="none" xmlns="http://www.w3.org/2000/svg">
  <defs>
    <linearGradient id="shieldGradient" x1="6" y1="6" x2="42" y2="42" gradientUnits="userSpaceOnUse">
      <stop offset="0%" stop-color="#60A5FA"/>
      <stop offset="48%" stop-color="#34D399"/>
      <stop offset="100%" stop-color="#10B981"/>
    </linearGradient>
    <linearGradient id="shieldInner" x1="14" y1="10" x2="34" y2="36" gradientUnits="userSpaceOnUse">
      <stop offset="0%" stop-color="#EFF6FF" stop-opacity="0.95"/>
      <stop offset="100%" stop-color="#DBF4F0" stop-opacity="0.9"/>
    </linearGradient>
  </defs>
  <path d="M24 44C24 44 8 37 8 14V10L24 4L40 10V14C40 37 24 44 24 44Z" fill="url(#shieldGradient)"/>
  <path d="M24 39C24 39 12.5 33.5 12.5 16.5V12.5L24 8L35.5 12.5V16.5C35.5 33.5 24 39 24 39Z" fill="url(#shieldInner)"/>
  <path d="M24 32.5C24 32.5 17.5 29.5 17.5 19.5V16.8L24 14.5L30.5 16.8V19.5C30.5 29.5 24 32.5 24 32.5Z" fill="#1F2937" opacity="0.08"/>
  <path d="M24 28C24 28 20 26.5 20 20.5V18.6L24 17.2L28 18.6V20.5C28 26.5 24 28 24 28Z" fill="#059669" opacity="0.45"/>
  <path d="M24 23.2L21.2 22.2V20L24 19L26.8 20V22.2L24 23.2Z" fill="#025E43" opacity="0.45"/>
  <path d="M24 17.5L19 19.4V20.9L24 19.1L29 20.9V19.4L24 17.5Z" fill="#0F172A" opacity="0.15"/>
</svg>
